<mxfile host="app.diagrams.net" modified="2024-01-14T17:18:17.893Z" agent="Mozilla/5.0 (Windows NT 10.0; Win64; x64) AppleWebKit/537.36 (KHTML, like Gecko) Chrome/120.0.0.0 Safari/537.36" etag="vS1xRt_LLTCjcKQH6LDh" version="22.1.18" type="device">
  <diagram id="C5RBs43oDa-KdzZeNtuy" name="Page-1">
    <mxGraphModel dx="790" dy="388" grid="1" gridSize="10" guides="1" tooltips="1" connect="1" arrows="1" fold="1" page="1" pageScale="1" pageWidth="827" pageHeight="1169" math="0" shadow="0">
      <root>
        <mxCell id="WIyWlLk6GJQsqaUBKTNV-0" />
        <mxCell id="WIyWlLk6GJQsqaUBKTNV-1" parent="WIyWlLk6GJQsqaUBKTNV-0" />
        <mxCell id="GrcvwgP6CBYpFeCLsEjB-0" value="M5Telemetry" style="swimlane;whiteSpace=wrap;html=1;" vertex="1" parent="WIyWlLk6GJQsqaUBKTNV-1">
          <mxGeometry x="460" y="70" width="270" height="390" as="geometry" />
        </mxCell>
        <mxCell id="GrcvwgP6CBYpFeCLsEjB-14" style="edgeStyle=orthogonalEdgeStyle;rounded=0;orthogonalLoop=1;jettySize=auto;html=1;exitX=0.5;exitY=1;exitDx=0;exitDy=0;entryX=0.5;entryY=0;entryDx=0;entryDy=0;" edge="1" parent="GrcvwgP6CBYpFeCLsEjB-0" source="GrcvwgP6CBYpFeCLsEjB-3" target="GrcvwgP6CBYpFeCLsEjB-5">
          <mxGeometry relative="1" as="geometry" />
        </mxCell>
        <mxCell id="GrcvwgP6CBYpFeCLsEjB-3" value="wifi.begin()" style="rounded=0;whiteSpace=wrap;html=1;" vertex="1" parent="GrcvwgP6CBYpFeCLsEjB-0">
          <mxGeometry x="40" y="40" width="180" height="20" as="geometry" />
        </mxCell>
        <mxCell id="GrcvwgP6CBYpFeCLsEjB-15" style="edgeStyle=orthogonalEdgeStyle;rounded=0;orthogonalLoop=1;jettySize=auto;html=1;exitX=0.5;exitY=1;exitDx=0;exitDy=0;entryX=0.5;entryY=0;entryDx=0;entryDy=0;" edge="1" parent="GrcvwgP6CBYpFeCLsEjB-0" source="GrcvwgP6CBYpFeCLsEjB-5" target="GrcvwgP6CBYpFeCLsEjB-6">
          <mxGeometry relative="1" as="geometry" />
        </mxCell>
        <mxCell id="GrcvwgP6CBYpFeCLsEjB-5" value="scan()" style="rounded=0;whiteSpace=wrap;html=1;" vertex="1" parent="GrcvwgP6CBYpFeCLsEjB-0">
          <mxGeometry x="40" y="80" width="180" height="20" as="geometry" />
        </mxCell>
        <mxCell id="GrcvwgP6CBYpFeCLsEjB-16" style="edgeStyle=orthogonalEdgeStyle;rounded=0;orthogonalLoop=1;jettySize=auto;html=1;exitX=0.5;exitY=1;exitDx=0;exitDy=0;entryX=0.5;entryY=0;entryDx=0;entryDy=0;" edge="1" parent="GrcvwgP6CBYpFeCLsEjB-0" source="GrcvwgP6CBYpFeCLsEjB-6" target="GrcvwgP6CBYpFeCLsEjB-7">
          <mxGeometry relative="1" as="geometry" />
        </mxCell>
        <mxCell id="GrcvwgP6CBYpFeCLsEjB-6" value="connect_server()" style="rounded=0;whiteSpace=wrap;html=1;" vertex="1" parent="GrcvwgP6CBYpFeCLsEjB-0">
          <mxGeometry x="40" y="120" width="180" height="20" as="geometry" />
        </mxCell>
        <mxCell id="GrcvwgP6CBYpFeCLsEjB-7" value="wifi.available()" style="rhombus;whiteSpace=wrap;html=1;" vertex="1" parent="GrcvwgP6CBYpFeCLsEjB-0">
          <mxGeometry x="25" y="170" width="210" height="40" as="geometry" />
        </mxCell>
        <mxCell id="GrcvwgP6CBYpFeCLsEjB-21" style="edgeStyle=orthogonalEdgeStyle;rounded=0;orthogonalLoop=1;jettySize=auto;html=1;exitX=1;exitY=0.5;exitDx=0;exitDy=0;entryX=1;entryY=0.5;entryDx=0;entryDy=0;" edge="1" parent="GrcvwgP6CBYpFeCLsEjB-0" source="GrcvwgP6CBYpFeCLsEjB-13" target="GrcvwgP6CBYpFeCLsEjB-7">
          <mxGeometry relative="1" as="geometry">
            <Array as="points">
              <mxPoint x="260" y="350" />
              <mxPoint x="260" y="190" />
            </Array>
          </mxGeometry>
        </mxCell>
        <mxCell id="GrcvwgP6CBYpFeCLsEjB-13" value="receive_data()" style="rounded=0;whiteSpace=wrap;html=1;" vertex="1" parent="GrcvwgP6CBYpFeCLsEjB-0">
          <mxGeometry x="40" y="340" width="180" height="20" as="geometry" />
        </mxCell>
        <mxCell id="GrcvwgP6CBYpFeCLsEjB-1" value="Master" style="swimlane;whiteSpace=wrap;html=1;" vertex="1" parent="WIyWlLk6GJQsqaUBKTNV-1">
          <mxGeometry x="50" y="70" width="410" height="390" as="geometry" />
        </mxCell>
        <mxCell id="GrcvwgP6CBYpFeCLsEjB-2" value="create_server()" style="rounded=0;whiteSpace=wrap;html=1;" vertex="1" parent="GrcvwgP6CBYpFeCLsEjB-1">
          <mxGeometry x="40" y="30" width="310" height="20" as="geometry" />
        </mxCell>
        <mxCell id="GrcvwgP6CBYpFeCLsEjB-18" style="edgeStyle=orthogonalEdgeStyle;rounded=0;orthogonalLoop=1;jettySize=auto;html=1;exitX=0.5;exitY=1;exitDx=0;exitDy=0;entryX=0.5;entryY=0;entryDx=0;entryDy=0;" edge="1" parent="GrcvwgP6CBYpFeCLsEjB-1" source="GrcvwgP6CBYpFeCLsEjB-8" target="GrcvwgP6CBYpFeCLsEjB-10">
          <mxGeometry relative="1" as="geometry" />
        </mxCell>
        <mxCell id="GrcvwgP6CBYpFeCLsEjB-8" value="rxWifi()" style="rounded=0;whiteSpace=wrap;html=1;" vertex="1" parent="GrcvwgP6CBYpFeCLsEjB-1">
          <mxGeometry x="30" y="210" width="320" height="20" as="geometry" />
        </mxCell>
        <mxCell id="GrcvwgP6CBYpFeCLsEjB-9" style="edgeStyle=orthogonalEdgeStyle;rounded=0;orthogonalLoop=1;jettySize=auto;html=1;exitX=0.5;exitY=1;exitDx=0;exitDy=0;" edge="1" parent="GrcvwgP6CBYpFeCLsEjB-1" source="GrcvwgP6CBYpFeCLsEjB-2" target="GrcvwgP6CBYpFeCLsEjB-2">
          <mxGeometry relative="1" as="geometry" />
        </mxCell>
        <mxCell id="GrcvwgP6CBYpFeCLsEjB-19" style="edgeStyle=orthogonalEdgeStyle;rounded=0;orthogonalLoop=1;jettySize=auto;html=1;exitX=0.5;exitY=1;exitDx=0;exitDy=0;entryX=0.5;entryY=0;entryDx=0;entryDy=0;" edge="1" parent="GrcvwgP6CBYpFeCLsEjB-1" source="GrcvwgP6CBYpFeCLsEjB-10" target="GrcvwgP6CBYpFeCLsEjB-12">
          <mxGeometry relative="1" as="geometry" />
        </mxCell>
        <mxCell id="GrcvwgP6CBYpFeCLsEjB-10" value="commandLookupTable[cmdId](rxBuffer)" style="rounded=0;whiteSpace=wrap;html=1;" vertex="1" parent="GrcvwgP6CBYpFeCLsEjB-1">
          <mxGeometry x="30" y="260" width="320" height="20" as="geometry" />
        </mxCell>
        <mxCell id="GrcvwgP6CBYpFeCLsEjB-12" value="txWifi()" style="rounded=0;whiteSpace=wrap;html=1;" vertex="1" parent="GrcvwgP6CBYpFeCLsEjB-1">
          <mxGeometry x="30" y="310" width="320" height="20" as="geometry" />
        </mxCell>
        <mxCell id="GrcvwgP6CBYpFeCLsEjB-17" style="edgeStyle=orthogonalEdgeStyle;rounded=0;orthogonalLoop=1;jettySize=auto;html=1;exitX=0;exitY=0.5;exitDx=0;exitDy=0;entryX=0.5;entryY=0;entryDx=0;entryDy=0;" edge="1" parent="WIyWlLk6GJQsqaUBKTNV-1" source="GrcvwgP6CBYpFeCLsEjB-7" target="GrcvwgP6CBYpFeCLsEjB-8">
          <mxGeometry relative="1" as="geometry" />
        </mxCell>
        <mxCell id="GrcvwgP6CBYpFeCLsEjB-20" style="edgeStyle=orthogonalEdgeStyle;rounded=0;orthogonalLoop=1;jettySize=auto;html=1;exitX=0.5;exitY=1;exitDx=0;exitDy=0;entryX=0;entryY=0.75;entryDx=0;entryDy=0;" edge="1" parent="WIyWlLk6GJQsqaUBKTNV-1" source="GrcvwgP6CBYpFeCLsEjB-12" target="GrcvwgP6CBYpFeCLsEjB-13">
          <mxGeometry relative="1" as="geometry" />
        </mxCell>
      </root>
    </mxGraphModel>
  </diagram>
</mxfile>
